<?xml version="1.0" standalone="no"?>
<!DOCTYPE svg PUBLIC "-//W3C//DTD SVG 20010904//EN"
 "http://www.w3.org/TR/2001/REC-SVG-20010904/DTD/svg10.dtd">
<svg version="1.0" xmlns="http://www.w3.org/2000/svg"
 width="480.000000pt" height="480.000000pt" viewBox="0 0 480.000000 480.000000"
 preserveAspectRatio="xMidYMid meet">
<metadata>
Created by potrace 1.14, written by Peter Selinger 2001-2017
</metadata>
<g transform="translate(0.000000,480.000000) scale(0.100000,-0.100000)"
fill="#000000" stroke="none">
<path d="M2339 4336 c-2 -2 -35 -6 -73 -10 -38 -4 -81 -9 -95 -12 -60 -14
-197 -57 -208 -66 -7 -6 -13 -8 -13 -5 0 12 -160 -79 -229 -130 -187 -141
-312 -303 -460 -599 -160 -320 -170 -415 -63 -559 21 -27 41 -55 45 -62 4 -6
1 -42 -7 -80 -8 -38 -17 -80 -19 -94 -3 -14 -17 -42 -31 -63 -14 -22 -26 -46
-27 -55 -5 -99 -10 -160 -15 -181 -4 -14 -8 -29 -10 -35 -1 -5 -21 -62 -43
-126 -22 -63 -42 -129 -45 -145 -3 -16 -10 -51 -15 -78 -9 -51 -7 -193 4 -256
18 -103 85 -260 185 -435 13 -22 36 -65 53 -95 16 -30 37 -66 45 -80 9 -14 29
-50 45 -80 74 -139 131 -189 282 -250 62 -25 105 -39 105 -35 0 3 8 1 18 -4 9
-5 34 -12 56 -15 21 -4 41 -8 45 -10 14 -9 159 -20 234 -18 121 3 306 73 607
230 232 122 282 163 623 513 29 29 79 40 92 19 10 -16 68 -11 101 9 61 37 135
151 199 304 24 58 32 68 49 63 12 -2 63 -10 114 -17 81 -11 97 -11 120 2 37
20 36 56 -3 133 -34 69 -94 150 -174 236 -28 30 -63 72 -77 92 l-26 36 21 21
c34 34 52 87 66 199 11 78 4 349 -10 432 -2 14 -7 45 -11 70 -3 24 -7 47 -9
50 -2 3 -6 25 -10 49 -10 67 -51 226 -85 331 -87 267 -292 505 -560 652 -118
64 -303 119 -485 143 -46 6 -301 15 -306 11z"/>
</g>
</svg>
